<?xml version="1.0" encoding="UTF-8"?>
<svg id="Calque_2" data-name="Calque 2" xmlns="http://www.w3.org/2000/svg" viewBox="0 0 170.57 49.55">
  <defs>
    <style>
      .cls-1 {
        fill: #fff;
      }
    </style>
  </defs>
  <g id="svg2">
    <g>
      <path class="cls-1" d="m28.51,15.77c-.81-.62-1.93-.68-2.85-.15-.92.53-1.43,1.52-1.31,2.53.09.63.19.92.48,1.67,0,0,4.79-2.74,4.84-2.67-.47-.74-.67-.97-1.16-1.37Z"/>
      <path class="cls-1" d="m15.27,23.35c-.81-.62-1.93-.68-2.85-.16-.92.53-1.43,1.52-1.31,2.53.09.63.19.91.48,1.66,0,0,4.78-2.74,4.83-2.67-.47-.75-.67-.98-1.16-1.37Z"/>
      <path class="cls-1" d="m49.49,8.18c-.45-.39-1.05-.39-1.91,0l-1.44.66c-1.77.83-3.06.57-3.83-.77-.84-1.47-.19-3.1,1.65-4.16,1.13-.64,2.38-.93,3.51-.69,0,0-.25.92-.34.98-.89-.1-1.78.11-2.66.61-1.31.75-1.73,1.71-1.16,2.69.47.82,1.18.94,2.37.39l1.4-.64c.99-.46,1.77-.58,2.46-.32v-2.45c0-2.47-2.01-4.48-4.48-4.48h-29.03l5.18,8.95,6.21-3.58,1.88,3.24-9.85,5.68L11.2,0h-6.72C2.01,0,0,2.01,0,4.48v40.59c0,2.47,2.01,4.48,4.48,4.48h45.07V12.12l-.63.4c-1.46.83-2.75,1.07-4.14.64,0,0,.26-.94.36-1,1.03.31,2.05.14,3.22-.53,0,0,.89-.65,1.19-.76v-2.64l-.05-.05ZM7.6,19.08c-2.46-.66-3.6-2.77-4.89-5C1.42,11.86.16,9.82.81,7.36c.45-1.7,1.37-3,3.15-4.04,3.8-2.19,6.85-.65,8.61,1.57l-3.66,2.11c-.94-.95-1.83-1.16-3.08-.44-.67.38-1,.96-1.06,1.47-.08.63,0,1.25,1.56,3.95,1.56,2.7,2.07,3.1,2.66,3.35.47.2,1.13.18,1.79-.2.77-.44,1.16-.97,1.28-1.52.17-.66-.03-1.34-.35-1.9l-.12-.21-2.18,1.26-1.76-3.03,5.8-3.34,1.19,2.06c1.38,2.39,1.82,4,1.35,5.79-.51,2.04-1.72,3.21-3.34,4.14-1.73.99-3.37,1.17-5.08.71Zm9.43,11.69c-2.31,1.32-4.46.52-6.05-2.25-1.54-2.69-1.2-5.03.91-6.24,2.11-1.21,4.25-.4,5.72,2.16,0,0,.2.35.2.48,0,0,0,.02,0,.03,0,0-5.5,3.15-5.66,3.24.64,1.08,1.38,1.76,2.21,1.99.69.19,1.42.06,2.18-.37.93-.53,1.36-1.12,1.76-2.31,0,0,.95.14,1.01.24-.34,1.25-.84,2.19-2.29,3.03Zm6.78-4.02s-.86.49-.95.48c0,0-7.74-6.53-7.73-6.67,0,0,.96-.55,1.05-.54,0,0,6.1,5.35,6.44,5.65-.22-1.15-1.57-8.23-1.57-8.5,0,0,0,0,0,0,0,0,.96-.55,1.08-.49l1.72,10.04-.05.03Zm6.46-3.56c-1.05.6-2.06.77-3,.51-1.15-.31-2.17-1.24-3.04-2.77-.86-1.5-1.15-2.92-.83-4.09.25-.9.83-1.63,1.74-2.15,2.11-1.21,4.25-.4,5.72,2.16,0,0,.2.35.2.48,0,0,0,.02,0,.03,0,0-5.49,3.14-5.65,3.24,1.17,1.99,2.72,2.57,4.39,1.62.93-.53,1.36-1.12,1.76-2.31,0,0,.95.14,1.01.24-.34,1.25-.84,2.19-2.29,3.03Zm9.56-5.61l-2.97-5.19c-.89-1.54-2.16-1.95-3.58-1.13-1.43.82-1.76,2.17-.89,3.69,0,0,2.93,5.12,2.9,5.23,0,0-.87.5-.99.47,0,0-4.73-8.26-4.7-8.37,0,0,.87-.5.99-.47,0,0,.42.74.43.95.22-1.06.83-1.9,1.83-2.47.93-.53,1.84-.69,2.71-.47.89.23,1.66.86,2.22,1.84,0,0,3.02,5.28,2.99,5.39l-.95.54Zm5-3.98s.44.77.41.88l-.75.43c-1.27.73-2.55.32-3.34-1.05,0,0-3.01-5.26-3.01-5.41,0,0,0,0,0,0,0,0-1.13.65-1.24.62,0,0-.37-.65-.34-.76,0,0,1.05-.6,1.1-.54-.01-.02-1.48-2.58-1.48-2.74,0,0,0,0,0,0,0,0,.87-.5.99-.47,0,0,1.41,2.45,1.41,2.6,0,0,0,0,0,0,0,0,1.87-1.07,1.98-1.04,0,0,.37.65.34.76,0,0-1.79,1.03-1.83.96.01.03,3.13,5.46,3.13,5.46.49.86,1.15,1.07,1.94.61,0,0,.6-.34.71-.31Z"/>
    </g>
    <g>
      <path id="path1395" class="cls-1" d="m62.41,21.72c-1.13,0-2.15-.24-3.06-.73-.9-.49-1.62-1.17-2.15-2.04-.52-.87-.77-1.86-.77-2.95s.26-2.07.77-2.94c.53-.87,1.24-1.55,2.15-2.04.92-.49,1.94-.74,3.08-.74.96,0,1.82.17,2.59.51.78.34,1.43.82,1.96,1.45l-1.64,1.52c-.75-.86-1.67-1.29-2.78-1.29-.68,0-1.29.15-1.83.46-.54.29-.96.71-1.26,1.25-.29.54-.44,1.15-.44,1.83s.15,1.29.44,1.83c.31.54.73.96,1.26,1.26.54.29,1.15.44,1.83.44,1.1,0,2.03-.44,2.78-1.31l1.64,1.52c-.53.64-1.18,1.13-1.96,1.47s-1.65.51-2.6.51Z"/>
      <path id="path1397" class="cls-1" d="m75.9,19.16h-5.13l-.98,2.37h-2.62l4.92-11.05h2.53l4.94,11.05h-2.68l-.98-2.37Zm-.8-1.94l-1.75-4.23-1.75,4.23h3.5Z"/>
      <path id="path1399" class="cls-1" d="m89.43,19.48v2.05h-8.55v-11.05h8.35v2.05h-5.81v2.4h5.13v1.99h-5.13v2.56h6.01Z"/>
      <path id="path1401" class="cls-1" d="m101.76,10.48v11.05h-2.1l-5.51-6.71v6.71h-2.53v-11.05h2.12l5.49,6.71v-6.71h2.53Z"/>
      <path id="path1403" class="cls-1" d="m65.68,37.01v2.05h-8.55v-11.05h8.35v2.05h-5.81v2.4h5.13v1.99h-5.13v2.56h6.01Zm-3.68-12.17h2.65l-2.86,2.27h-1.93l2.13-2.27Z"/>
      <path id="path1405" class="cls-1" d="m78.3,28.02l-4.78,11.05h-2.53l-4.77-11.05h2.76l3.36,7.89,3.41-7.89h2.54Z"/>
      <path id="path1407" class="cls-1" d="m87.9,37.01v2.05h-8.55v-11.05h8.35v2.05h-5.81v2.4h5.13v1.99h-5.13v2.56h6.01Zm-3.68-12.17h2.65l-2.86,2.27h-1.93l2.13-2.27Z"/>
      <path id="path1409" class="cls-1" d="m100.19,28.02v11.05h-2.1l-5.51-6.71v6.71h-2.53v-11.05h2.12l5.49,6.71v-6.71h2.53Z"/>
      <path id="path1411" class="cls-1" d="m111.49,37.01v2.05h-8.55v-11.05h8.35v2.05h-5.81v2.4h5.13v1.99h-5.13v2.56h6.01Z"/>
      <path id="path1413" class="cls-1" d="m123.71,39.06l-.02-6.63-3.25,5.46h-1.15l-3.24-5.32v6.49h-2.4v-11.05h2.11l4.14,6.87,4.07-6.87h2.1l.03,11.05h-2.4Z"/>
      <path id="path1415" class="cls-1" d="m137.41,37.01v2.05h-8.55v-11.05h8.35v2.05h-5.81v2.4h5.13v1.99h-5.13v2.56h6.01Z"/>
      <path id="path1417" class="cls-1" d="m149.71,28.02v11.05h-2.1l-5.51-6.71v6.71h-2.53v-11.05h2.11l5.49,6.71v-6.71h2.53Z"/>
      <path id="path1419" class="cls-1" d="m154.74,30.1h-3.54v-2.08h9.63v2.08h-3.54v8.97h-2.56v-8.97Z"/>
      <path id="path1421" class="cls-1" d="m165.88,39.25c-.87,0-1.72-.12-2.54-.35-.81-.24-1.46-.55-1.96-.93l.87-1.93c.47.35,1.04.63,1.69.84.65.21,1.3.32,1.96.32.73,0,1.26-.11,1.61-.32.35-.22.52-.51.52-.87,0-.26-.11-.48-.32-.65-.2-.18-.46-.32-.79-.43-.32-.11-.75-.22-1.29-.35-.84-.2-1.53-.4-2.07-.6-.54-.2-1-.52-1.39-.96-.38-.44-.57-1.03-.57-1.77,0-.64.17-1.22.52-1.74.35-.53.87-.94,1.56-1.25.71-.31,1.56-.46,2.57-.46.7,0,1.39.08,2.07.25.67.17,1.26.41,1.77.73l-.79,1.94c-1.02-.58-2.04-.87-3.06-.87-.72,0-1.25.12-1.59.35-.34.23-.51.54-.51.92s.19.66.58.85c.4.18,1,.36,1.82.54.84.2,1.53.4,2.07.6.54.2.99.52,1.37.95.39.43.58,1.02.58,1.75,0,.63-.18,1.21-.54,1.74-.35.52-.87.93-1.58,1.23-.7.31-1.56.46-2.57.46h0Z"/>
    </g>
  </g>
</svg>