<?xml version="1.0" encoding="UTF-8"?>
<svg id="Calque_2" data-name="Calque 2" xmlns="http://www.w3.org/2000/svg" xmlns:xlink="http://www.w3.org/1999/xlink" viewBox="0 0 92.9 54.19">
  <defs>
    <style>
      .cls-1 {
        fill: #fff;
      }

      .cls-2, .cls-3 {
        fill: none;
      }

      .cls-3 {
        clip-path: url(#clippath);
      }

      .cls-4 {
        fill: #bd0034;
      }

      .cls-5 {
        fill: #1a237b;
      }
    </style>
    <clipPath id="clippath">
      <rect class="cls-2" width="92.9" height="54.19"/>
    </clipPath>
  </defs>
  <g id="_4" data-name="4">
    <g id="UNITED_KINGDOM" data-name="UNITED KINGDOM">
      <g class="cls-3">
        <rect class="cls-1" width="92.9" height="54.19"/>
        <polygon class="cls-4" points="62.2 19.59 92.9 2.41 92.9 0 90.78 0 55.78 19.59 62.2 19.59"/>
        <polygon class="cls-4" points="60.75 35.68 92.9 53.67 92.9 50.08 67.17 35.68 60.75 35.68"/>
        <polygon class="cls-4" points="0 4.12 27.5 19.59 33.92 19.59 0 .53 0 4.12"/>
        <polygon class="cls-4" points="32.47 35.68 0 53.87 0 54.19 5.87 54.19 38.89 35.68 32.47 35.68"/>
        <polygon class="cls-5" points="86.54 0 54.01 0 54.01 18.22 86.54 0"/>
        <polygon class="cls-5" points="39.65 0 7.26 0 39.65 18.22 39.65 0"/>
        <polygon class="cls-5" points="92.9 19.59 92.9 7.16 70.83 19.59 92.9 19.59"/>
        <polygon class="cls-5" points="92.9 47.98 92.9 35.68 70.83 35.68 92.9 47.98"/>
        <polygon class="cls-5" points="9.1 54.19 39.65 54.19 39.65 37.06 9.1 54.19"/>
        <polygon class="cls-5" points="54.01 54.19 84.67 54.19 54.01 37.06 54.01 54.19"/>
        <polygon class="cls-5" points="0 35.68 0 48.53 22.83 35.68 0 35.68"/>
        <polygon class="cls-5" points="0 19.59 22.83 19.59 0 6.72 0 19.59"/>
        <polygon class="cls-4" points="42.53 0 42.53 22.81 0 22.81 0 32.47 42.53 32.47 42.53 54.19 51.14 54.19 51.14 32.47 92.9 32.47 92.9 22.81 51.14 22.81 51.14 0 42.53 0"/>
      </g>
    </g>
  </g>
</svg>