<?xml version="1.0" encoding="UTF-8"?>
<svg id="Calque_2" data-name="Calque 2" xmlns="http://www.w3.org/2000/svg" viewBox="0 0 348.89 162.57">
  <defs>
    <style>
      .cls-1 {
        fill: #fff;
      }

      .cls-2 {
        stroke: #fff;
        stroke-linecap: round;
        stroke-miterlimit: 10;
        stroke-width: 2.13px;
      }
    </style>
  </defs>
  <g id="Calque_1-2" data-name="Calque 1">
    <g>
      <g>
        <path class="cls-1" d="m7.96,111.32v10.36H0v-34.54h45.3v7.35H7.96v10.2h37.04v6.63H7.96Z"/>
        <path class="cls-1" d="m59.58,121.68c-7.24,0-10.61-3.72-10.61-11.22v-15.51c0-5.05,2.19-7.8,8.11-7.8h29.18c5.92,0,8.01,2.75,8.01,7.8v4.85c0,5.05-2.09,7.8-8.01,7.8h-29.23v2.04c0,3.06,1.33,4.64,4.28,4.64h32.09v7.4h-33.82Zm26.73-24.84c0-1.99-.82-3.01-2.96-3.01h-23.36c-2.14,0-2.96,1.02-2.96,3.01v4.95h26.32c2.14,0,2.96-1.12,2.96-3.06v-1.89Z"/>
        <path class="cls-1" d="m99.32,121.68v-6.68h32.85c2.09,0,2.96-1.07,2.96-3.11v-1.63c0-1.89-.82-3.06-2.91-3.06h-24.89c-5.87,0-8.01-2.81-8.01-7.86v-4.39c0-5.05,2.14-7.8,8.01-7.8h34.94v6.68h-32.04c-2.14,0-2.96,1.02-2.96,3.01v1.38c0,1.94.82,3.06,2.96,3.06h24.84c5.92,0,8.06,2.81,8.06,7.86v4.74c0,5.05-2.14,7.81-8.06,7.81h-35.76Z"/>
        <path class="cls-1" d="m164.27,121.68v-27.19h-17.96v-7.35h43.97v7.35h-18.06v27.19h-7.96Z"/>
        <path class="cls-1" d="m193.96,121.68v-34.54h8.01v34.54h-8.01Z"/>
        <path class="cls-1" d="m222.98,121.68l-17.96-34.54h9.54l14.23,28.06h5.51l14.03-28.06h9.23l-17.75,34.54h-16.84Z"/>
        <path class="cls-1" d="m268.54,121.68c-5.87,0-8.01-2.75-8.01-7.81v-4.69c0-5.05,2.14-7.81,8.01-7.81h29.28v-2.19c0-3.16-1.38-4.69-4.29-4.69h-32.14v-7.35h33.87c7.19,0,10.51,3.72,10.51,11.22v23.31h-37.24Zm29.28-14.54h-26.37c-2.14,0-2.96,1.07-2.96,3.01v1.73c0,2.04.82,3.11,2.96,3.11h26.37v-7.86Z"/>
        <path class="cls-1" d="m321.39,121.68c-7.19,0-10.56-3.72-10.56-11.22v-23.31h8.01v22.5c0,3.06,1.38,4.64,4.23,4.64h25.81v7.4h-27.5Z"/>
      </g>
      <path class="cls-1" d="m81.37,76.33l-32.7-32.47h-29.99v32.47H1.09V0h17.59v30.55h30.33L80.35,0h21.31l-36.53,36.42,38.67,39.91h-22.44Z"/>
      <path class="cls-1" d="m217.35,76.33V26.61c0-6.88-3.05-10.37-9.36-10.37h-26.38v60.1h-17.59V16.23h-35.63v60.1h-17.7V0h101.03c15.9,0,23.34,8.34,23.34,24.8v51.53h-17.7Z"/>
      <path class="cls-1" d="m246.66,76.33V0h81.86c12.97,0,17.7,6.09,17.7,17.25v4.85c0,12.63-6.2,14.66-10.82,15.22,4.73.45,11.95,2.82,11.95,14.66v7.1c0,11.16-4.62,17.25-17.59,17.25h-83.1Zm81.97-54.91c0-4.4-1.8-6.65-6.54-6.65h-57.73v16.23h56.94c4.4,0,7.33-1.58,7.33-6.54v-3.04Zm1.13,29.2c0-4.62-3.16-6.43-7.55-6.43h-57.84v17.36h58.86c4.74,0,6.54-2.37,6.54-6.88v-4.06Z"/>
    </g>
    <g>
      <path class="cls-1" d="m57.8,162.57l1.62-9.18h-5.89l.31-1.8h13.73l-.31,1.8h-5.9l-1.62,9.18h-1.95Z"/>
      <path class="cls-1" d="m78.56,162.57l.86-4.9h-9.66l-.86,4.9h-1.96l1.93-10.98h1.96l-.76,4.39h9.66l.76-4.39h1.95l-1.93,10.98h-1.95Z"/>
      <path class="cls-1" d="m85.56,162.57c-1.9,0-2.8-.83-2.8-2.48,0-.32.05-.7.11-1.09l.86-4.93c.28-1.61,1.12-2.48,2.97-2.48h9.13c1.52,0,2.14.6,2.14,1.72,0,.23-.03.49-.08.76l-.26,1.48c-.29,1.61-1.1,2.48-2.93,2.48h-9.7l-.13.78c-.05.29-.06.52-.06.73,0,.97.49,1.23,1.49,1.23h10.15l-.32,1.8h-10.56Zm10.3-8.04c.03-.19.05-.37.05-.52,0-.62-.32-.78-1.05-.78h-7.73c-.89,0-1.36.45-1.51,1.3l-.34,1.98h9c.91,0,1.33-.47,1.48-1.31l.11-.66Z"/>
      <path class="cls-1" d="m109.49,162.57l1.62-9.18h-5.89l.31-1.8h13.73l-.31,1.8h-5.9l-1.62,9.18h-1.95Z"/>
      <path class="cls-1" d="m121.83,162.57c-1.9,0-2.81-.83-2.81-2.48,0-.32.05-.7.11-1.09l.86-4.93c.28-1.61,1.12-2.48,2.97-2.48h9.13c1.52,0,2.14.6,2.14,1.72,0,.23-.03.49-.08.76l-.26,1.48c-.29,1.61-1.1,2.48-2.93,2.48h-9.7l-.13.78c-.05.29-.06.52-.06.73,0,.97.49,1.23,1.49,1.23h10.15l-.32,1.8h-10.56Zm10.3-8.04c.03-.19.05-.37.05-.52,0-.62-.32-.78-1.05-.78h-7.73c-.89,0-1.36.45-1.51,1.3l-.34,1.98h9c.91,0,1.33-.47,1.48-1.31l.11-.66Z"/>
      <path class="cls-1" d="m137.65,162.57c-1.9,0-2.81-.83-2.81-2.48,0-.32.05-.7.11-1.09l.68-3.84c.42-2.38,1.67-3.57,3.94-3.57h9.86l-.31,1.8h-9.45c-1.2,0-1.9.65-2.12,1.96l-.6,3.45c-.05.31-.08.57-.08.79,0,.97.52,1.17,1.51,1.17h9.45l-.32,1.8h-9.86Z"/>
      <path class="cls-1" d="m160.87,162.57l.86-4.9h-9.66l-.86,4.9h-1.96l1.93-10.98h1.96l-.76,4.39h9.66l.76-4.39h1.95l-1.93,10.98h-1.95Z"/>
      <path class="cls-1" d="m176.59,162.57l1.26-7.22c.05-.26.08-.5.08-.7,0-1.02-.47-1.26-1.48-1.26h-8.2l-1.62,9.18h-1.96l1.93-10.98h10.57c1.88,0,2.77.84,2.77,2.51,0,.32-.03.68-.1,1.05l-1.31,7.41h-1.95Z"/>
      <path class="cls-1" d="m183.53,162.57c-1.9,0-2.81-.83-2.81-2.48,0-.32.05-.7.11-1.09l.68-3.84c.42-2.38,1.67-3.57,3.94-3.57h7.52c1.9,0,2.79.83,2.79,2.48,0,.34-.03.7-.1,1.09l-.68,3.84c-.42,2.38-1.67,3.57-3.94,3.57h-7.52Zm10.13-7.22c.05-.26.08-.5.08-.7,0-1.02-.45-1.26-1.48-1.26h-6.71c-1.2,0-1.9.65-2.12,1.96l-.6,3.45c-.05.31-.08.57-.08.79,0,.97.52,1.17,1.51,1.17h6.71c1.2,0,1.86-.66,2.09-1.96l.6-3.45Z"/>
      <path class="cls-1" d="m205.83,162.57c-1.9,0-2.8-.83-2.8-2.48,0-.32.05-.7.11-1.09l.86-4.93c.28-1.61,1.12-2.48,2.97-2.48h9.13c1.52,0,2.14.6,2.14,1.72,0,.23-.03.49-.08.76l-.26,1.48c-.29,1.61-1.1,2.48-2.93,2.48h-9.7l-.13.78c-.05.29-.06.52-.06.73,0,.97.49,1.23,1.49,1.23h10.15l-.32,1.8h-10.56Zm10.3-8.04c.03-.19.05-.37.05-.52,0-.62-.32-.78-1.05-.78h-7.73c-.89,0-1.36.45-1.51,1.3l-.34,1.98h9c.91,0,1.33-.47,1.48-1.31l.11-.66Z"/>
      <path class="cls-1" d="m221.04,159.02l-.63,3.55h-1.95l1.93-10.98h14.16l-.31,1.8h-12.21l-.71,4.01h12.11l-.28,1.62h-12.11Z"/>
      <path class="cls-1" d="m236.62,159.02l-.63,3.55h-1.95l1.93-10.98h14.16l-.31,1.8h-12.21l-.71,4.01h12.11l-.28,1.62h-12.11Z"/>
      <path class="cls-1" d="m252.82,162.57c-1.9,0-2.8-.83-2.8-2.48,0-.32.05-.7.11-1.09l.86-4.93c.28-1.61,1.12-2.48,2.97-2.48h9.13c1.52,0,2.14.6,2.14,1.72,0,.23-.03.49-.08.76l-.26,1.48c-.29,1.61-1.1,2.48-2.93,2.48h-9.7l-.13.78c-.05.29-.06.52-.06.73,0,.97.49,1.23,1.49,1.23h10.15l-.32,1.8h-10.56Zm10.3-8.04c.03-.19.05-.37.05-.52,0-.62-.32-.78-1.05-.78h-7.73c-.89,0-1.36.45-1.51,1.3l-.34,1.98h9c.91,0,1.33-.47,1.48-1.31l.11-.66Z"/>
      <path class="cls-1" d="m268.64,162.57c-1.9,0-2.8-.83-2.8-2.48,0-.32.05-.7.11-1.09l.68-3.84c.42-2.38,1.67-3.57,3.94-3.57h9.86l-.31,1.8h-9.45c-1.2,0-1.9.65-2.12,1.96l-.6,3.45c-.05.31-.08.57-.08.79,0,.97.52,1.17,1.51,1.17h9.45l-.32,1.8h-9.86Z"/>
      <path class="cls-1" d="m285.58,162.57l1.62-9.18h-5.89l.31-1.8h13.73l-.31,1.8h-5.9l-1.62,9.18h-1.95Z"/>
    </g>
    <line class="cls-2" x1="96.68" y1="139.33" x2="252.21" y2="139.33"/>
  </g>
</svg>