<?xml version="1.0" encoding="UTF-8"?>
<svg id="Calque_2" data-name="Calque 2" xmlns="http://www.w3.org/2000/svg" xmlns:xlink="http://www.w3.org/1999/xlink" viewBox="0 0 404.97 350.46">
  <defs>
    <style>
      .cls-1 {
        fill: url(#linear-gradient-2);
      }

      .cls-2 {
        fill: #f79fc9;
      }

      .cls-3 {
        stroke: url(#Dégradé_sans_nom_13-3);
      }

      .cls-3, .cls-4, .cls-5, .cls-6, .cls-7 {
        fill: none;
      }

      .cls-3, .cls-4, .cls-5, .cls-7 {
        stroke-miterlimit: 10;
        stroke-width: 7.32px;
      }

      .cls-4 {
        stroke: url(#Dégradé_sans_nom_13);
      }

      .cls-5 {
        stroke: url(#Dégradé_sans_nom_13-4);
      }

      .cls-8 {
        fill: url(#linear-gradient-5);
      }

      .cls-9 {
        clip-path: url(#clippath);
      }

      .cls-10 {
        fill: url(#linear-gradient-3);
      }

      .cls-11 {
        fill: url(#linear-gradient);
      }

      .cls-7 {
        stroke: url(#Dégradé_sans_nom_13-2);
      }

      .cls-12 {
        fill: url(#linear-gradient-4);
      }
    </style>
    <linearGradient id="linear-gradient" x1="81.38" y1="168.71" x2="126.29" y2="168.71" gradientTransform="translate(-58.06 8.37) rotate(-13.18)" gradientUnits="userSpaceOnUse">
      <stop offset="0" stop-color="#e61b72"/>
      <stop offset=".22" stop-color="#e01a70"/>
      <stop offset=".49" stop-color="#d11a6b"/>
      <stop offset=".78" stop-color="#b81962"/>
      <stop offset="1" stop-color="#a2195b"/>
    </linearGradient>
    <linearGradient id="linear-gradient-2" x1="96.66" y1="168.71" x2="141.58" y2="168.71" xlink:href="#linear-gradient"/>
    <linearGradient id="linear-gradient-3" x1="110.1" y1="113.85" x2="110.1" y2="125.35" xlink:href="#linear-gradient"/>
    <linearGradient id="Dégradé_sans_nom_13" data-name="Dégradé sans nom 13" x1="26.27" y1="271.34" x2="351.94" y2="271.34" gradientUnits="userSpaceOnUse">
      <stop offset="0" stop-color="#f79fc9"/>
      <stop offset=".8" stop-color="#e71c7a"/>
    </linearGradient>
    <linearGradient id="Dégradé_sans_nom_13-2" data-name="Dégradé sans nom 13" x1="180.88" y1="55.49" x2="304.16" y2="55.49" xlink:href="#Dégradé_sans_nom_13"/>
    <linearGradient id="Dégradé_sans_nom_13-3" data-name="Dégradé sans nom 13" x1="0" y1="276.36" x2="339.73" y2="276.36" xlink:href="#Dégradé_sans_nom_13"/>
    <linearGradient id="Dégradé_sans_nom_13-4" data-name="Dégradé sans nom 13" x1="161.32" y1="51.15" x2="288.03" y2="51.15" xlink:href="#Dégradé_sans_nom_13"/>
    <clipPath id="clippath">
      <path class="cls-6" d="m63.72,94.84v105.18h59.94v-105.18h-59.94Zm15.18,15.44c-1.18.28-4.08,1.18-6.32,3.58v-3.88h8.26c-.85.07-1.52.2-1.94.3Z"/>
    </clipPath>
    <linearGradient id="linear-gradient-4" x1="96.66" y1="168.71" x2="141.58" y2="168.71" xlink:href="#linear-gradient"/>
    <linearGradient id="linear-gradient-5" x1="110.1" y1="113.85" x2="110.1" y2="125.35" xlink:href="#linear-gradient"/>
  </defs>
  <g id="Calque_1-2" data-name="Calque 1">
    <g>
      <g>
        <path class="cls-11" d="m65.72,179.99s9.21-23.1,15.95-40.51c3.6-9.29,6.49-16.96,6.91-18.62,1.19-4.77,4.83-12.81-2.78-21.17,0,0,14.44,15.61,13.56,32.12-.88,16.51-21.33,66.22-21.33,66.22l-12.31-18.04Z"/>
        <path class="cls-1" d="m121.66,166.88s-43.55-39.09-46.74-42.83c-3.19-3.75-10.02-9.33-6.91-20.2,0,0-6,20.4,2.12,34.8,8.12,14.4,48.52,49.86,48.52,49.86l3.02-21.63Z"/>
        <path class="cls-10" d="m84.98,99.31c-5.22-3.65-9.16-2.16-9.16-2.16,0,0-4.19.41-7.24,6-3.63,7.3.84,14.03.84,14.03,1.84-5.31,6.75-7.28,9.26-7.87s7.78-1,11.79,2.94c0,0,1.01-8.02-5.48-12.95Z"/>
      </g>
      <g>
        <g>
          <polyline class="cls-4" points="324.38 230.43 347 335.23 33.44 231.29 63.33 204.7"/>
          <polyline class="cls-7" points="183.32 97.94 280.23 11.71 300.58 105.39"/>
        </g>
        <g>
          <polyline class="cls-3" points="310.29 233.23 334.77 344.96 7.17 236.37 38.39 208.59 42.44 205"/>
          <polyline class="cls-5" points="163.76 97.05 265.01 6.96 284.44 101.57"/>
        </g>
        <g>
          <path class="cls-2" d="m79.15,216.38v9.9h-7.61v-33.01h43.29v7.02h-35.69v9.75h35.4v6.34h-35.4Z"/>
          <path class="cls-2" d="m128.48,226.27c-6.92,0-10.14-3.56-10.14-10.73v-14.82c0-4.83,2.1-7.46,7.75-7.46h27.89c5.66,0,7.65,2.63,7.65,7.46v4.63c0,4.83-2,7.46-7.65,7.46h-27.94v1.95c0,2.93,1.27,4.44,4.09,4.44h30.67v7.07h-32.32Zm25.55-23.74c0-1.9-.78-2.88-2.83-2.88h-22.33c-2.05,0-2.83.97-2.83,2.88v4.73h25.16c2.05,0,2.83-1.07,2.83-2.93v-1.8Z"/>
          <path class="cls-2" d="m166.46,226.27v-6.39h31.4c2,0,2.83-1.02,2.83-2.97v-1.56c0-1.8-.78-2.93-2.78-2.93h-23.79c-5.61,0-7.65-2.68-7.65-7.51v-4.19c0-4.83,2.05-7.46,7.65-7.46h33.4v6.39h-30.62c-2.05,0-2.83.97-2.83,2.88v1.32c0,1.85.78,2.93,2.83,2.93h23.74c5.66,0,7.7,2.68,7.7,7.51v4.53c0,4.83-2.05,7.46-7.7,7.46h-34.18Z"/>
          <path class="cls-2" d="m228.53,226.27v-25.99h-17.16v-7.02h42.03v7.02h-17.26v25.99h-7.61Z"/>
          <path class="cls-2" d="m256.9,226.27v-33.01h7.65v33.01h-7.65Z"/>
          <path class="cls-2" d="m284.64,226.27l-17.16-33.01h9.12l13.6,26.81h5.27l13.41-26.81h8.82l-16.97,33.01h-16.09Z"/>
          <path class="cls-2" d="m328.18,226.27c-5.61,0-7.65-2.63-7.65-7.46v-4.48c0-4.83,2.05-7.46,7.65-7.46h27.99v-2.1c0-3.02-1.32-4.49-4.1-4.49h-30.72v-7.02h32.37c6.87,0,10.04,3.56,10.04,10.73v22.28h-35.59Zm27.99-13.9h-25.21c-2.05,0-2.83,1.02-2.83,2.88v1.66c0,1.95.78,2.97,2.83,2.97h25.21v-7.51Z"/>
          <path class="cls-2" d="m378.69,226.27c-6.87,0-10.09-3.56-10.09-10.73v-22.28h7.65v21.5c0,2.93,1.32,4.44,4.05,4.44h24.67v7.07h-26.28Z"/>
        </g>
        <path class="cls-2" d="m149.3,182.94l-31.25-31.03h-28.66v31.03h-16.81v-72.95h16.81v29.2h28.99l29.95-29.2h20.37l-34.91,34.81,36.96,38.14h-21.44Z"/>
        <path class="cls-2" d="m279.25,182.94v-47.52c0-6.57-2.91-9.91-8.94-9.91h-25.21v57.43h-16.81v-57.43h-34.05v57.43h-16.92v-72.95h96.55c15.19,0,22.31,7.97,22.31,23.7v49.24h-16.92Z"/>
        <path class="cls-2" d="m307.27,182.94v-72.95h78.23c12.39,0,16.92,5.82,16.92,16.49v4.64c0,12.07-5.93,14.01-10.34,14.54,4.52.43,11.42,2.69,11.42,14.01v6.79c0,10.67-4.42,16.49-16.81,16.49h-79.42Zm78.34-52.48c0-4.2-1.72-6.36-6.25-6.36h-55.17v15.51h54.42c4.2,0,7-1.51,7-6.25v-2.91Zm1.08,27.91c0-4.42-3.02-6.14-7.22-6.14h-55.28v16.6h56.25c4.53,0,6.25-2.26,6.25-6.57v-3.88Z"/>
        <path class="cls-2" d="m169.37,248.45l1.55-8.77h-5.62l.29-1.72h13.13l-.29,1.72h-5.64l-1.55,8.77h-1.86Z"/>
        <path class="cls-2" d="m189.22,248.45l.82-4.68h-9.24l-.82,4.68h-1.88l1.84-10.49h1.88l-.73,4.2h9.24l.73-4.2h1.86l-1.84,10.49h-1.86Z"/>
        <path class="cls-2" d="m195.91,248.45c-1.81,0-2.68-.79-2.68-2.37,0-.31.05-.67.11-1.04l.82-4.71c.26-1.53,1.07-2.37,2.84-2.37h8.72c1.46,0,2.05.57,2.05,1.64,0,.22-.03.46-.08.73l-.25,1.41c-.28,1.53-1.05,2.37-2.8,2.37h-9.27l-.12.74c-.05.28-.06.5-.06.7,0,.93.47,1.18,1.43,1.18h9.7l-.31,1.72h-10.09Zm9.84-7.69c.03-.19.05-.36.05-.5,0-.59-.31-.74-1.01-.74h-7.39c-.85,0-1.3.43-1.44,1.24l-.33,1.89h8.6c.87,0,1.27-.45,1.41-1.25l.11-.64Z"/>
        <path class="cls-2" d="m218.78,248.45l1.55-8.77h-5.62l.29-1.72h13.12l-.29,1.72h-5.64l-1.55,8.77h-1.86Z"/>
        <path class="cls-2" d="m230.57,248.45c-1.81,0-2.68-.79-2.68-2.37,0-.31.05-.67.11-1.04l.82-4.71c.26-1.53,1.07-2.37,2.84-2.37h8.72c1.46,0,2.05.57,2.05,1.64,0,.22-.03.46-.08.73l-.25,1.41c-.28,1.53-1.05,2.37-2.8,2.37h-9.27l-.12.74c-.05.28-.06.5-.06.7,0,.93.47,1.18,1.43,1.18h9.7l-.31,1.72h-10.09Zm9.84-7.69c.03-.19.05-.36.05-.5,0-.59-.31-.74-1.01-.74h-7.39c-.85,0-1.3.43-1.44,1.24l-.33,1.89h8.6c.87,0,1.27-.45,1.41-1.25l.11-.64Z"/>
        <path class="cls-2" d="m245.69,248.45c-1.81,0-2.68-.79-2.68-2.37,0-.31.05-.67.11-1.04l.65-3.67c.4-2.28,1.6-3.41,3.77-3.41h9.42l-.29,1.72h-9.03c-1.15,0-1.81.62-2.03,1.88l-.57,3.3c-.05.29-.08.54-.08.76,0,.93.5,1.12,1.44,1.12h9.03l-.31,1.72h-9.42Z"/>
        <path class="cls-2" d="m267.88,248.45l.82-4.68h-9.24l-.82,4.68h-1.87l1.84-10.49h1.88l-.73,4.2h9.24l.73-4.2h1.86l-1.84,10.49h-1.86Z"/>
        <path class="cls-2" d="m282.91,248.45l1.21-6.9c.05-.25.08-.48.08-.67,0-.98-.45-1.21-1.41-1.21h-7.84l-1.55,8.77h-1.87l1.84-10.49h10.1c1.8,0,2.65.81,2.65,2.4,0,.31-.03.65-.09,1.01l-1.26,7.08h-1.86Z"/>
        <path class="cls-2" d="m289.54,248.45c-1.81,0-2.68-.79-2.68-2.37,0-.31.05-.67.11-1.04l.65-3.67c.4-2.28,1.6-3.41,3.77-3.41h7.19c1.81,0,2.67.79,2.67,2.37,0,.33-.03.67-.09,1.04l-.65,3.67c-.4,2.28-1.6,3.41-3.77,3.41h-7.19Zm9.68-6.9c.05-.25.08-.48.08-.67,0-.98-.43-1.21-1.41-1.21h-6.42c-1.15,0-1.81.62-2.03,1.88l-.57,3.3c-.05.29-.08.54-.08.76,0,.93.5,1.12,1.44,1.12h6.42c1.15,0,1.78-.64,2-1.88l.57-3.3Z"/>
        <path class="cls-2" d="m214.32,265.88c-1.81,0-2.68-.79-2.68-2.37,0-.31.05-.67.11-1.04l.82-4.71c.26-1.53,1.07-2.37,2.84-2.37h8.72c1.46,0,2.05.57,2.05,1.64,0,.22-.03.46-.08.73l-.25,1.41c-.28,1.53-1.05,2.37-2.8,2.37h-9.27l-.12.74c-.05.28-.06.5-.06.7,0,.93.47,1.18,1.43,1.18h9.7l-.31,1.72h-10.09Zm9.84-7.69c.03-.19.05-.36.05-.5,0-.59-.31-.74-1.01-.74h-7.39c-.85,0-1.3.43-1.44,1.24l-.33,1.89h8.6c.87,0,1.27-.45,1.41-1.25l.11-.64Z"/>
        <path class="cls-2" d="m228.86,262.49l-.6,3.39h-1.86l1.84-10.49h13.53l-.29,1.72h-11.67l-.68,3.83h11.58l-.26,1.55h-11.58Z"/>
        <path class="cls-2" d="m243.75,262.49l-.6,3.39h-1.86l1.84-10.49h13.53l-.29,1.72h-11.67l-.68,3.83h11.58l-.26,1.55h-11.58Z"/>
        <path class="cls-2" d="m259.22,265.88c-1.81,0-2.68-.79-2.68-2.37,0-.31.05-.67.11-1.04l.82-4.71c.26-1.53,1.07-2.37,2.84-2.37h8.72c1.46,0,2.05.57,2.05,1.64,0,.22-.03.46-.08.73l-.25,1.41c-.28,1.53-1.05,2.37-2.8,2.37h-9.27l-.12.74c-.05.28-.06.5-.06.7,0,.93.47,1.18,1.43,1.18h9.7l-.31,1.72h-10.09Zm9.84-7.69c.03-.19.05-.36.05-.5,0-.59-.31-.74-1.01-.74h-7.39c-.85,0-1.3.43-1.44,1.24l-.33,1.89h8.6c.87,0,1.27-.45,1.41-1.25l.11-.64Z"/>
        <path class="cls-2" d="m274.34,265.88c-1.81,0-2.68-.79-2.68-2.37,0-.31.05-.67.11-1.04l.65-3.67c.4-2.28,1.6-3.41,3.77-3.41h9.42l-.29,1.72h-9.03c-1.15,0-1.81.62-2.03,1.88l-.57,3.3c-.05.29-.08.54-.08.76,0,.93.5,1.12,1.44,1.12h9.03l-.31,1.72h-9.42Z"/>
        <path class="cls-2" d="m290.54,265.88l1.55-8.77h-5.62l.29-1.72h13.12l-.29,1.72h-5.64l-1.55,8.77h-1.86Z"/>
      </g>
      <g class="cls-9">
        <g>
          <path class="cls-11" d="m65.72,179.99s9.21-23.1,15.95-40.51c3.6-9.29,6.49-16.96,6.91-18.62,1.19-4.77,4.83-12.81-2.78-21.17,0,0,14.44,15.61,13.56,32.12-.88,16.51-21.33,66.22-21.33,66.22l-12.31-18.04Z"/>
          <path class="cls-12" d="m121.66,166.88s-43.55-39.09-46.74-42.83c-3.19-3.75-10.02-9.33-6.91-20.2,0,0-6,20.4,2.12,34.8,8.12,14.4,48.52,49.86,48.52,49.86l3.02-21.63Z"/>
          <path class="cls-8" d="m84.98,99.31c-5.22-3.65-9.16-2.16-9.16-2.16,0,0-4.19.41-7.24,6-3.63,7.3.84,14.03.84,14.03,1.84-5.31,6.75-7.28,9.26-7.87s7.78-1,11.79,2.94c0,0,1.01-8.02-5.48-12.95Z"/>
        </g>
      </g>
    </g>
  </g>
</svg>